

[img]http://img26.imageshack.us/img26/6377/rihannawhatmyname2.png[/img]

[code]General
Complete name                    : Rihanna ft Drake - Whats My Name [KingPinMKVideos].mkv
Format                           : Matroska
File size                        : 102 MiB
Duration                         : 4mn 27s
Overall bit rate                 : 3 198 Kbps
Writing application              : HandBrake 0.9.4

Video
ID                               : 1
Format                           : AVC
Format/Info                      : Advanced Video Codec
Format profile                   : High@L3.0
Format settings, CABAC           : No
Format settings, ReFrames        : 2 frames
Muxing mode                      : Container profile=Unknown@3.0
Codec ID                         : V_MPEG4/ISO/AVC
Duration                         : 4mn 27s
Bit rate                         : 2 942 Kbps
Nominal bit rate                 : 3 000 Kbps
Width                            : 526 pixels
Height                           : 296 pixels
Display aspect ratio             : 16:9
Frame rate                       : 29.970 fps
Resolution                       : 8 bits
Colorimetry                      : 4:2:0
Scan type                        : Progressive
Bits/(Pixel*Frame)               : 0.630
Stream size                      : 93.6 MiB (92%)
Writing library                  : x264 core 79

Audio
ID                               : 2
Format                           : AC-3
Format/Info                      : Audio Coding 3
Codec ID                         : A_AC3
Duration                         : 4mn 27s
Bit rate mode                    : Constant
Bit rate                         : 192 Kbps
Channel(s)                       : 2 channels
Channel positions                : L R
Sampling rate                    : 48.0 KHz
Stream size                      : 6.12 MiB (6%)[/code]